# xmcd CD database file
#
# Track frame offsets:
#	215
#	19397
#	37457
#	54275
#	72722
#	87057
#	102940
#	119890
#	137157
#	169235
#	195190
#	228575
#	247537
#
# Disc length: 3454 seconds
#
# Revision: 2
# Processed by: cddbd v1.4b41PL1 Copyright (c) Steve Scherf et al.
# Submitted via: Feurio! 1.52 - http://www.feurio.com
#
DISCID=b70d7c0d
DTITLE=Mike Bloomfield - Between A Hard Place And The Ground
DYEAR=1900
DGENRE=
TTITLE0=Eyesight To The Blind
TTITLE1=Linda Lou
TTITLE2=Kansas City Blues
TTITLE3=Medley: Darktown Strutters Ball, Mop Mop, Call Me A Dog
TTITLE4=I´m Glad I´m Jewish
TTITLE5=Great Gifts From Heaven
TTITLE6=Lo, Thou I Am With Thee
TTITLE7=Jockey Blues
TTITLE8=Between A Hard Place And The Ground
TTITLE9=Uncle Bob´s Barrelhouse Blues
TTITLE10=Wee Wee Hours
TTITLE11=Vamp In C
TTITLE12=One Of These Days
EXTD=
EXTT0=
EXTT1=
EXTT2=
EXTT3=
EXTT4=
EXTT5=
EXTT6=
EXTT7=
EXTT8=
EXTT9=
EXTT10=
EXTT11=
EXTT12=
PLAYORDER=
